%TF.GenerationSoftware,Altium Limited,Altium Designer,25.4.2 (15)*%
G04 Layer_Color=128*
%FSLAX45Y45*%
%MOMM*%
%TF.SameCoordinates,ED5EE25F-CAAF-45C9-90DD-3E8EB6C1BE4C*%
%TF.FilePolarity,Positive*%
%TF.FileFunction,Drillmap*%
%TF.Part,Single*%
G01*
G75*
%TA.AperFunction,NonConductor*%
%ADD97C,0.12700*%
D97*
X7812400Y9540000D02*
X7927600D01*
X7870000Y9482400D02*
Y9597600D01*
X10922400Y7090000D02*
X11037600D01*
X10980000Y7032400D02*
Y7147600D01*
X10740000Y9800000D02*
X11060000D01*
X10900000Y9640000D02*
Y9960000D01*
X9796450Y9501600D02*
X9895550D01*
X9846000Y9452050D02*
Y9551150D01*
X9796450Y9298400D02*
X9895550D01*
X9846000Y9248850D02*
Y9347950D01*
X10304450Y9400000D02*
X10403550D01*
X10354000Y9350450D02*
Y9449550D01*
X10740000Y6800000D02*
X11060000D01*
X10900000Y6640000D02*
Y6960000D01*
X7840000Y6800000D02*
X8160000D01*
X8000000Y6640000D02*
Y6960000D01*
X7840000Y9800000D02*
X8160000D01*
X8000000Y9640000D02*
Y9960000D01*
X10645000Y7790000D02*
X10675000D01*
X10660000Y7775000D02*
Y7805000D01*
X10630000Y7910000D02*
X10670000D01*
X10650000Y7890000D02*
Y7930000D01*
X10640000Y7660000D02*
X10680000D01*
X10660000Y7640000D02*
Y7680000D01*
X8120000Y7910000D02*
X8160000D01*
X8140000Y7890000D02*
Y7930000D01*
X8370000Y7140000D02*
X8410000D01*
X8390000Y7120000D02*
Y7160000D01*
X9400000Y7210000D02*
X9440000D01*
X9420000Y7190000D02*
Y7230000D01*
X10400000Y8840000D02*
X10440000D01*
X10420000Y8820000D02*
Y8860000D01*
X10260000Y8840000D02*
X10300000D01*
X10280000Y8820000D02*
Y8860000D01*
X8130000Y9100000D02*
X8170000D01*
X8150000Y9080000D02*
Y9120000D01*
X8230000Y8470000D02*
X8270000D01*
X8250000Y8450000D02*
Y8490000D01*
X8090000Y8470000D02*
X8130000D01*
X8110000Y8450000D02*
Y8490000D01*
X8220000Y7140000D02*
X8260000D01*
X8240000Y7120000D02*
Y7160000D01*
X8080000Y7140000D02*
X8120000D01*
X8100000Y7120000D02*
Y7160000D01*
X9930000Y8410000D02*
X9970000D01*
X9950000Y8390000D02*
Y8430000D01*
X9790000Y8410000D02*
X9830000D01*
X9810000Y8390000D02*
Y8430000D01*
X10710000Y9540000D02*
X10750000D01*
X10730000Y9520000D02*
Y9560000D01*
X10850000Y9540000D02*
X10890000D01*
X10870000Y9520000D02*
Y9560000D01*
X10850000Y9390000D02*
X10890000D01*
X10870000Y9370000D02*
Y9410000D01*
X10710000Y9390000D02*
X10750000D01*
X10730000Y9370000D02*
Y9410000D01*
X10720000Y9260000D02*
X10760000D01*
X10740000Y9240000D02*
Y9280000D01*
X10860000Y9260000D02*
X10900000D01*
X10880000Y9240000D02*
Y9280000D01*
X10860000Y9110000D02*
X10900000D01*
X10880000Y9090000D02*
Y9130000D01*
X10720000Y9110000D02*
X10760000D01*
X10740000Y9090000D02*
Y9130000D01*
X9260000Y7500000D02*
X9300000D01*
X9280000Y7480000D02*
Y7520000D01*
X9400000Y7500000D02*
X9440000D01*
X9420000Y7480000D02*
Y7520000D01*
X9400000Y7350000D02*
X9440000D01*
X9420000Y7330000D02*
Y7370000D01*
X9260000Y7350000D02*
X9300000D01*
X9280000Y7330000D02*
Y7370000D01*
X8080000Y7300000D02*
X8120000D01*
X8100000Y7280000D02*
Y7320000D01*
X8230000Y7300000D02*
X8270000D01*
X8250000Y7280000D02*
Y7320000D01*
X8370000Y7300000D02*
X8410000D01*
X8390000Y7280000D02*
Y7320000D01*
X8080000Y7460000D02*
X8120000D01*
X8100000Y7440000D02*
Y7480000D01*
X8230000Y7460000D02*
X8270000D01*
X8250000Y7440000D02*
Y7480000D01*
X8370000Y7460000D02*
X8410000D01*
X8390000Y7440000D02*
Y7480000D01*
X8370000Y7610000D02*
X8410000D01*
X8390000Y7590000D02*
Y7630000D01*
X8230000Y7610000D02*
X8270000D01*
X8250000Y7590000D02*
Y7630000D01*
X8080000Y7610000D02*
X8120000D01*
X8100000Y7590000D02*
Y7630000D01*
X9180000Y9650000D02*
X9220000D01*
X9200000Y9630000D02*
Y9670000D01*
X8980000Y9650000D02*
X9020000D01*
X9000000Y9630000D02*
Y9670000D01*
X8510000Y9770000D02*
X8550000D01*
X8530000Y9750000D02*
Y9790000D01*
X8340000Y9770000D02*
X8380000D01*
X8360000Y9750000D02*
Y9790000D01*
X9180000Y9770000D02*
X9220000D01*
X9200000Y9750000D02*
Y9790000D01*
X8980000Y9770000D02*
X9020000D01*
X9000000Y9750000D02*
Y9790000D01*
X9574875Y7840042D02*
X9604875D01*
X9589875Y7825042D02*
Y7855042D01*
X8427500Y9010000D02*
X8452500D01*
X8440000Y8997500D02*
Y9022500D01*
X8095000Y9440000D02*
X8125000D01*
X8110000Y9425000D02*
Y9455000D01*
X8105000Y9280000D02*
X8135000D01*
X8120000Y9265000D02*
Y9295000D01*
X9745000Y9945000D02*
X9775000D01*
X9760000Y9930000D02*
Y9960000D01*
X9816715Y9738792D02*
X9846715D01*
X9831715Y9723792D02*
Y9753792D01*
X9985000Y9745000D02*
X10015000D01*
X10000000Y9730000D02*
Y9760000D01*
X9428454Y9729046D02*
X9453454D01*
X9440954Y9716546D02*
Y9741546D01*
X10215000Y9240000D02*
X10245000D01*
X10230000Y9225000D02*
Y9255000D01*
X9935000Y8920000D02*
X9965000D01*
X9950000Y8905000D02*
Y8935000D01*
X8981842Y9032500D02*
X9011842D01*
X8996842Y9017500D02*
Y9047500D01*
X8996883Y9170507D02*
X9026883D01*
X9011883Y9155507D02*
Y9185507D01*
X8635000Y9100000D02*
X8665000D01*
X8650000Y9085000D02*
Y9115000D01*
X8968095Y9385004D02*
X8998095D01*
X8983095Y9370004D02*
Y9400004D01*
X8147500Y8770000D02*
X8172500D01*
X8160000Y8757500D02*
Y8782500D01*
X8285000Y8600000D02*
X8315000D01*
X8300000Y8585000D02*
Y8615000D01*
X8561463Y9433571D02*
X8586463D01*
X8573963Y9421071D02*
Y9446071D01*
X8688488Y9794767D02*
X8718488D01*
X8703488Y9779767D02*
Y9809767D01*
X9087500Y9475000D02*
X9112500D01*
X9100000Y9462500D02*
Y9487500D01*
X8421150Y7890959D02*
X8451150D01*
X8436150Y7875959D02*
Y7905959D01*
X9605000Y6730000D02*
X9635000D01*
X9620000Y6715000D02*
Y6745000D01*
X9258948Y6725648D02*
X9288948D01*
X9273948Y6710648D02*
Y6740648D01*
X9264070Y7626477D02*
X9294070D01*
X9279070Y7611477D02*
Y7641477D01*
X9761473Y7928570D02*
X9791473D01*
X9776473Y7913570D02*
Y7943570D01*
X10489703Y7892099D02*
X10519703D01*
X10504703Y7877099D02*
Y7907099D01*
X10352118Y7712179D02*
X10382118D01*
X10367118Y7697179D02*
Y7727179D01*
X10354234Y7885749D02*
X10384234D01*
X10369234Y7870749D02*
Y7900749D01*
X10684258Y7487537D02*
X10709258D01*
X10696758Y7475037D02*
Y7500037D01*
X10561015Y7485964D02*
X10586015D01*
X10573515Y7473464D02*
Y7498464D01*
X9201025Y7207997D02*
X9231025D01*
X9216025Y7192997D02*
Y7222997D01*
X10585000Y8800000D02*
X10615000D01*
X10600000Y8785000D02*
Y8815000D01*
X8557500Y8173482D02*
X8587500D01*
X8572500Y8158482D02*
Y8188482D01*
X8145854Y8128079D02*
X8175854D01*
X8160854Y8113079D02*
Y8143079D01*
X8085000Y8300000D02*
X8115000D01*
X8100000Y8285000D02*
Y8315000D01*
X9312500Y9475000D02*
X9337500D01*
X9325000Y9462500D02*
Y9487500D01*
X9402998Y9003019D02*
X9427997D01*
X9415498Y8990519D02*
Y9015519D01*
X9587500Y9050000D02*
X9612500D01*
X9600000Y9037500D02*
Y9062500D01*
X8612500Y8375000D02*
X8637500D01*
X8625000Y8362500D02*
Y8387500D01*
X8620000Y9480000D02*
X8640000D01*
X8630000Y9470000D02*
Y9490000D01*
X8620000Y9370000D02*
X8640000D01*
X8630000Y9360000D02*
Y9380000D01*
X8510000Y9370000D02*
X8530000D01*
X8520000Y9360000D02*
Y9380000D01*
X8510000Y9480000D02*
X8530000D01*
X8520000Y9470000D02*
Y9490000D01*
X9430851Y8227075D02*
X9450851D01*
X9440851Y8217075D02*
Y8237075D01*
X9320851Y8227075D02*
X9340851D01*
X9330851Y8217075D02*
Y8237075D01*
X9210851Y8227075D02*
X9230851D01*
X9220851Y8217075D02*
Y8237075D01*
X9100851Y8227075D02*
X9120851D01*
X9110851Y8217075D02*
Y8237075D01*
X8990851Y8227075D02*
X9010851D01*
X9000851Y8217075D02*
Y8237075D01*
X9430851Y8337075D02*
X9450851D01*
X9440851Y8327075D02*
Y8347074D01*
X9320851Y8337075D02*
X9340851D01*
X9330851Y8327075D02*
Y8347074D01*
X9210851Y8337075D02*
X9230851D01*
X9220851Y8327075D02*
Y8347074D01*
X9100851Y8337075D02*
X9120851D01*
X9110851Y8327075D02*
Y8347074D01*
X8990851Y8337075D02*
X9010851D01*
X9000851Y8327075D02*
Y8347074D01*
X9430851Y8447075D02*
X9450851D01*
X9440851Y8437075D02*
Y8457075D01*
X9320851Y8447075D02*
X9340851D01*
X9330851Y8437075D02*
Y8457075D01*
X9210851Y8447075D02*
X9230851D01*
X9220851Y8437075D02*
Y8457075D01*
X9100851Y8447075D02*
X9120851D01*
X9110851Y8437075D02*
Y8457075D01*
X8990851Y8447075D02*
X9010851D01*
X9000851Y8437075D02*
Y8457075D01*
X9430851Y8557075D02*
X9450851D01*
X9440851Y8547075D02*
Y8567075D01*
X9320851Y8557075D02*
X9340851D01*
X9330851Y8547075D02*
Y8567075D01*
X9210851Y8557075D02*
X9230851D01*
X9220851Y8547075D02*
Y8567075D01*
X9100851Y8557075D02*
X9120851D01*
X9110851Y8547075D02*
Y8567075D01*
X8990851Y8557075D02*
X9010851D01*
X9000851Y8547075D02*
Y8567075D01*
X9430851Y8667075D02*
X9450851D01*
X9440851Y8657075D02*
Y8677075D01*
X9320851Y8667075D02*
X9340851D01*
X9330851Y8657075D02*
Y8677075D01*
X9210851Y8667075D02*
X9230851D01*
X9220851Y8657075D02*
Y8677075D01*
X9100851Y8667075D02*
X9120851D01*
X9110851Y8657075D02*
Y8677075D01*
X8990851Y8667075D02*
X9010851D01*
X9000851Y8657075D02*
Y8677075D01*
%TF.MD5,9fb65ce54a4aa30c73c11f84edf417a3*%
M02*
