%TF.GenerationSoftware,Altium Limited,Altium Designer,25.4.2 (15)*%
G04 Layer_Physical_Order=4*
G04 Layer_Color=16711680*
%FSLAX45Y45*%
%MOMM*%
%TF.SameCoordinates,ED5EE25F-CAAF-45C9-90DD-3E8EB6C1BE4C*%
%TF.FilePolarity,Positive*%
%TF.FileFunction,Copper,L4,Bot,Signal*%
%TF.Part,Single*%
G01*
G75*
%TA.AperFunction,Conductor*%
%ADD46C,0.25000*%
%ADD47C,0.40000*%
%ADD48C,1.00000*%
%ADD49C,0.80000*%
%TA.AperFunction,ViaPad*%
%ADD52C,1.15200*%
%ADD53C,3.20000*%
%TA.AperFunction,ComponentPad*%
%ADD54C,0.99100*%
%TA.AperFunction,ViaPad*%
%ADD55C,0.70000*%
%ADD56C,0.80000*%
%ADD57C,0.60000*%
%ADD58C,0.50000*%
D46*
X10000000Y9260000D02*
Y9745000D01*
X9610000Y8870000D02*
X10000000Y9260000D01*
X8720000Y8870000D02*
X9610000D01*
X9100000Y9475000D02*
X9325000D01*
X8625000Y8375000D02*
Y8775000D01*
X8720000Y8870000D01*
X9415498Y9003019D02*
X9416994D01*
X9463975Y9050000D02*
X9600000D01*
X9416994Y9003019D02*
X9463975Y9050000D01*
D47*
X8160000Y8930000D02*
X8240000Y9010000D01*
X8440000D01*
X8160000Y8770000D02*
Y8930000D01*
D48*
X9630000Y9840000D02*
X9803750D01*
X9519046Y9729046D02*
X9630000Y9840000D01*
X9440954Y9729046D02*
X9519046D01*
X10230000Y9130000D02*
Y9240000D01*
X9950000Y8920000D02*
X10020000D01*
X10230000Y9130000D01*
X9278300Y6730000D02*
X9620000D01*
D49*
X9803750Y9840000D02*
X10140000D01*
X10230000Y9240000D02*
Y9750000D01*
X10140000Y9840000D02*
X10230000Y9750000D01*
D52*
X7870000Y9540000D02*
D03*
X10980000Y7090000D02*
D03*
D53*
X10900000Y9800000D02*
D03*
Y6800000D02*
D03*
X8000000D02*
D03*
Y9800000D02*
D03*
D54*
X9846000Y9501600D02*
D03*
Y9298400D02*
D03*
X10354000Y9400000D02*
D03*
D55*
X10660000Y7790000D02*
D03*
X9589875Y7840042D02*
D03*
X8110000Y9440000D02*
D03*
X8120000Y9280000D02*
D03*
X9760000Y9945000D02*
D03*
X9831715Y9738792D02*
D03*
X10000000Y9745000D02*
D03*
X9440954Y9729046D02*
D03*
X10230000Y9240000D02*
D03*
X9950000Y8920000D02*
D03*
X8996842Y9032500D02*
D03*
X9011883Y9170507D02*
D03*
X8650000Y9100000D02*
D03*
X8983095Y9385004D02*
D03*
X8300000Y8600000D02*
D03*
X8703488Y9794767D02*
D03*
X8436150Y7890959D02*
D03*
X9620000Y6730000D02*
D03*
X9273948Y6725648D02*
D03*
X9279070Y7626477D02*
D03*
X9776473Y7928570D02*
D03*
X10504703Y7892099D02*
D03*
X10367118Y7712179D02*
D03*
X10369234Y7885749D02*
D03*
X9216025Y7207997D02*
D03*
X10600000Y8800000D02*
D03*
X8572500Y8173482D02*
D03*
X8160854Y8128079D02*
D03*
X8100000Y8300000D02*
D03*
D56*
X10650000Y7910000D02*
D03*
X10660000Y7660000D02*
D03*
X8140000Y7910000D02*
D03*
X8390000Y7140000D02*
D03*
X9420000Y7210000D02*
D03*
X10420000Y8840000D02*
D03*
X10280000D02*
D03*
X8150000Y9100000D02*
D03*
X8250000Y8470000D02*
D03*
X8110000D02*
D03*
X8240000Y7140000D02*
D03*
X8100000D02*
D03*
X9950000Y8410000D02*
D03*
X9810000D02*
D03*
X10730000Y9540000D02*
D03*
X10870000D02*
D03*
Y9390000D02*
D03*
X10730000D02*
D03*
X10740000Y9260000D02*
D03*
X10880000D02*
D03*
Y9110000D02*
D03*
X10740000D02*
D03*
X9280000Y7500000D02*
D03*
X9420000D02*
D03*
Y7350000D02*
D03*
X9280000D02*
D03*
X8100000Y7300000D02*
D03*
X8250000D02*
D03*
X8390000D02*
D03*
X8100000Y7460000D02*
D03*
X8250000D02*
D03*
X8390000D02*
D03*
Y7610000D02*
D03*
X8250000D02*
D03*
X8100000D02*
D03*
X9200000Y9650000D02*
D03*
X9000000D02*
D03*
X8530000Y9770000D02*
D03*
X8360000D02*
D03*
X9200000D02*
D03*
X9000000D02*
D03*
D57*
X8440000Y9010000D02*
D03*
X8160000Y8770000D02*
D03*
X8573963Y9433571D02*
D03*
X9100000Y9475000D02*
D03*
X10696758Y7487537D02*
D03*
X10573515Y7485964D02*
D03*
X9325000Y9475000D02*
D03*
X9415498Y9003019D02*
D03*
X9600000Y9050000D02*
D03*
X8625000Y8375000D02*
D03*
D58*
X8630000Y9480000D02*
D03*
Y9370000D02*
D03*
X8520000D02*
D03*
Y9480000D02*
D03*
X9440851Y8227075D02*
D03*
X9330851D02*
D03*
X9220851D02*
D03*
X9110851D02*
D03*
X9000851D02*
D03*
X9440851Y8337075D02*
D03*
X9330851D02*
D03*
X9220851D02*
D03*
X9110851D02*
D03*
X9000851D02*
D03*
X9440851Y8447075D02*
D03*
X9330851D02*
D03*
X9220851D02*
D03*
X9110851D02*
D03*
X9000851D02*
D03*
X9440851Y8557075D02*
D03*
X9330851D02*
D03*
X9220851D02*
D03*
X9110851D02*
D03*
X9000851D02*
D03*
X9440851Y8667075D02*
D03*
X9330851D02*
D03*
X9220851D02*
D03*
X9110851D02*
D03*
X9000851D02*
D03*
%TF.MD5,214866500e8792ea7d87e3b516818414*%
M02*
