%TF.GenerationSoftware,Altium Limited,Altium Designer,25.4.2 (15)*%
G04 Layer_Color=65535*
%FSLAX45Y45*%
%MOMM*%
%TF.SameCoordinates,ED5EE25F-CAAF-45C9-90DD-3E8EB6C1BE4C*%
%TF.FilePolarity,Positive*%
%TF.FileFunction,Legend,Top*%
%TF.Part,Single*%
G01*
G75*
%TA.AperFunction,NonConductor*%
%ADD59C,0.25000*%
%ADD60C,0.20000*%
%ADD61C,0.15000*%
%ADD62C,0.25400*%
%ADD63C,0.10000*%
D59*
X8218351Y8028426D02*
G03*
X8218351Y8028426I-12500J0D01*
G01*
X10649419Y8450527D02*
G03*
X10649419Y8450527I-12500J0D01*
G01*
X10239500Y9791000D02*
G03*
X10239500Y9791000I-12500J0D01*
G01*
X10487500Y7580279D02*
G03*
X10487500Y7580279I-12500J0D01*
G01*
X8712500Y9720000D02*
G03*
X8712500Y9720000I-12500J0D01*
G01*
X8798351Y8802075D02*
G03*
X8798351Y8802075I-12500J0D01*
G01*
X8602500Y7162500D02*
G03*
X8602500Y7162500I-12500J0D01*
G01*
D60*
X8600851Y8567666D02*
Y8818286D01*
X8420231Y8567666D02*
Y8818286D01*
X8260851Y8200925D02*
X8470851D01*
X8260851Y7955926D02*
X8470851D01*
X10686918Y8178527D02*
X10954419D01*
X10686918Y8987527D02*
X10954419D01*
X10686918Y8940527D02*
Y8987527D01*
Y8178527D02*
Y8225527D01*
X10138605Y9976000D02*
X10269818D01*
X10138605Y9841000D02*
X10269818D01*
X10595300Y9095200D02*
Y9704800D01*
X9604700D02*
X10595300D01*
X9604700Y9095200D02*
Y9704800D01*
Y9095200D02*
X10595300D01*
X9799750Y7426030D02*
X10450250D01*
X9799750Y7075529D02*
Y7426030D01*
Y7075529D02*
X10450250D01*
Y7426030D01*
X8790000Y9210000D02*
Y9242500D01*
X8757500Y9210000D02*
X8790000D01*
X8360000D02*
X8392500D01*
X8360000D02*
Y9242500D01*
Y9607500D02*
Y9640000D01*
X8392500D01*
X8790000Y9607500D02*
Y9640000D01*
X8757500D02*
X8790000D01*
X9157226Y9287651D02*
X9284474D01*
X9157226Y9422651D02*
X9284474D01*
X9339474Y9421455D02*
X9466721D01*
X9339474Y9286455D02*
X9466721D01*
X9217500Y9109393D02*
Y9240607D01*
X9082500Y9109393D02*
Y9240607D01*
X8850851Y8077075D02*
X8893351D01*
X8850851D02*
Y8119575D01*
X9548351Y8077075D02*
X9590851D01*
Y8119575D01*
Y8774575D02*
Y8817075D01*
X9548351D02*
X9590851D01*
X8850851D02*
X8893351D01*
X8850851Y8774575D02*
Y8817075D01*
X9223742Y7865000D02*
X9474362D01*
X9223742Y7684380D02*
X9474362D01*
X10261203Y8308430D02*
X10507025D01*
X10261203Y8484252D02*
X10507025D01*
X10525000Y7077634D02*
Y7368254D01*
X10750620Y7077634D02*
Y7368254D01*
X9979690Y7912810D02*
X10270310D01*
X9979690Y7687190D02*
X10270310D01*
X10183297Y7997810D02*
Y8248430D01*
X10363917Y7997810D02*
Y8248430D01*
X10398917Y7997810D02*
Y8248430D01*
X10579537Y7997810D02*
Y8248430D01*
X10948624Y7666377D02*
Y7833624D01*
X10801376Y7666377D02*
Y7833624D01*
X9691376Y8150000D02*
X9858624D01*
X9691376Y8002753D02*
X9858624D01*
X8365000Y6872500D02*
Y6995000D01*
X8492500Y6590000D02*
X9312500D01*
X9440000Y6872500D02*
Y6995000D01*
X9282500D02*
X9440000D01*
X8365000D02*
X8522500D01*
D61*
X7931697Y7375000D02*
X8001674D01*
Y7409988D01*
X7990011Y7421651D01*
X7943360D01*
X7931697Y7409988D01*
Y7375000D01*
X8001674Y7479966D02*
Y7456640D01*
X7990011Y7444977D01*
X7966686D01*
X7955023Y7456640D01*
Y7479966D01*
X7966686Y7491629D01*
X7978349D01*
Y7444977D01*
X8001674Y7514955D02*
Y7549943D01*
X7990011Y7561606D01*
X7978349Y7549943D01*
Y7526618D01*
X7966686Y7514955D01*
X7955023Y7526618D01*
Y7561606D01*
X8001674Y7584932D02*
Y7608258D01*
Y7596595D01*
X7955023D01*
Y7584932D01*
X8025000Y7666573D02*
Y7678236D01*
X8013337Y7689899D01*
X7955023D01*
Y7654910D01*
X7966686Y7643247D01*
X7990011D01*
X8001674Y7654910D01*
Y7689899D01*
Y7713224D02*
X7955023D01*
Y7748213D01*
X7966686Y7759876D01*
X8001674D01*
Y7818191D02*
Y7794865D01*
X7990011Y7783202D01*
X7966686D01*
X7955023Y7794865D01*
Y7818191D01*
X7966686Y7829854D01*
X7978349D01*
Y7783202D01*
X7931697Y7899831D02*
X8001674D01*
Y7864842D01*
X7990011Y7853179D01*
X7966686D01*
X7955023Y7864842D01*
Y7899831D01*
X7931697Y7993134D02*
X8001674D01*
Y8028123D01*
X7990011Y8039786D01*
X7978349D01*
X7966686Y8028123D01*
Y7993134D01*
Y8028123D01*
X7955023Y8039786D01*
X7943360D01*
X7931697Y8028123D01*
Y7993134D01*
X7955023Y8063112D02*
X7990011D01*
X8001674Y8074775D01*
Y8109764D01*
X8013337D01*
X8025000Y8098101D01*
Y8086438D01*
X8001674Y8109764D02*
X7955023D01*
Y8133089D02*
Y8144752D01*
X7966686D01*
Y8133089D01*
X7955023D01*
X7990011D02*
Y8144752D01*
X8001674D01*
Y8133089D01*
X7990011D01*
X7931697Y8261381D02*
X8001674D01*
X7966686D01*
Y8308033D01*
X7931697D01*
X8001674D01*
X7955023Y8343022D02*
Y8366348D01*
X7966686Y8378011D01*
X8001674D01*
Y8343022D01*
X7990011Y8331359D01*
X7978349Y8343022D01*
Y8378011D01*
X7931697Y8401337D02*
X8001674D01*
Y8436325D01*
X7990011Y8447988D01*
X7978349D01*
X7966686D01*
X7955023Y8436325D01*
Y8401337D01*
X8001674Y8471314D02*
Y8494640D01*
Y8482977D01*
X7955023D01*
Y8471314D01*
X7931697Y8529629D02*
X8001674D01*
Y8564617D01*
X7990011Y8576280D01*
X7978349D01*
X7966686D01*
X7955023Y8564617D01*
Y8529629D01*
X7931697Y8669584D02*
X7990011D01*
X8001674Y8681247D01*
Y8704572D01*
X7990011Y8716235D01*
X7931697D01*
X7955023Y8739561D02*
X8001674D01*
X7978349D01*
X7966686Y8751224D01*
X7955023Y8762887D01*
Y8774550D01*
X8001674Y8879516D02*
X7931697D01*
Y8914505D01*
X7943360Y8926168D01*
X7966686D01*
X7978349Y8914505D01*
Y8879516D01*
Y8902842D02*
X8001674Y8926168D01*
Y8984482D02*
Y8961157D01*
X7990011Y8949494D01*
X7966686D01*
X7955023Y8961157D01*
Y8984482D01*
X7966686Y8996145D01*
X7978349D01*
Y8949494D01*
X7931697Y9019471D02*
X8001674D01*
X7966686D01*
X7955023Y9031134D01*
Y9054460D01*
X7966686Y9066123D01*
X8001674D01*
Y9089449D02*
X7955023D01*
Y9101112D01*
X7966686Y9112775D01*
X8001674D01*
X7966686D01*
X7955023Y9124437D01*
X7966686Y9136100D01*
X8001674D01*
X7955023Y9171089D02*
Y9194415D01*
X7966686Y9206078D01*
X8001674D01*
Y9171089D01*
X7990011Y9159426D01*
X7978349Y9171089D01*
Y9206078D01*
X8001674Y9229404D02*
X7955023D01*
Y9264392D01*
X7966686Y9276055D01*
X8001674D01*
D62*
X8782045Y7258706D02*
X8765384Y7275368D01*
X8732061D01*
X8715400Y7258706D01*
Y7192061D01*
X8732061Y7175400D01*
X8765384D01*
X8782045Y7192061D01*
Y7225384D01*
X8748722D01*
X8815368Y7175400D02*
Y7275368D01*
X8865352D01*
X8882013Y7258706D01*
Y7225384D01*
X8865352Y7208722D01*
X8815368D01*
X8915335Y7275368D02*
X8948658D01*
X8931997D01*
Y7175400D01*
X8915335D01*
X8948658D01*
X9048626Y7275368D02*
X9015303D01*
X8998642Y7258706D01*
Y7192061D01*
X9015303Y7175400D01*
X9048626D01*
X9065287Y7192061D01*
Y7258706D01*
X9048626Y7275368D01*
X10715400Y8085368D02*
Y8002061D01*
X10732061Y7985400D01*
X10765384D01*
X10782045Y8002061D01*
Y8085368D01*
X10882013Y8068706D02*
X10865352Y8085368D01*
X10832029D01*
X10815368Y8068706D01*
Y8052045D01*
X10832029Y8035384D01*
X10865352D01*
X10882013Y8018723D01*
Y8002061D01*
X10865352Y7985400D01*
X10832029D01*
X10815368Y8002061D01*
X10915336Y8085368D02*
Y7985400D01*
X10965319D01*
X10981981Y8002061D01*
Y8018723D01*
X10965319Y8035384D01*
X10915336D01*
X10965319D01*
X10981981Y8052045D01*
Y8068706D01*
X10965319Y8085368D01*
X10915336D01*
X10292045Y9018706D02*
X10275384Y9035368D01*
X10242061D01*
X10225400Y9018706D01*
Y9002045D01*
X10242061Y8985384D01*
X10275384D01*
X10292045Y8968722D01*
Y8952061D01*
X10275384Y8935400D01*
X10242061D01*
X10225400Y8952061D01*
X10325368Y9035368D02*
Y8935400D01*
X10358690Y8968722D01*
X10392013Y8935400D01*
Y9035368D01*
X10425336D02*
Y8935400D01*
X10475319D01*
X10491981Y8952061D01*
Y9018706D01*
X10475319Y9035368D01*
X10425336D01*
X10321919Y8759202D02*
X10271135D01*
X10296527D01*
Y8632243D01*
X10271135Y8606851D01*
X10245743D01*
X10220351Y8632243D01*
X10372702Y8606851D02*
X10423486D01*
X10398094D01*
Y8759202D01*
X10372702Y8733810D01*
D63*
X9740000Y8309999D02*
X9693348D01*
X9716674Y8286674D02*
Y8333325D01*
X10960000Y7470000D02*
Y7423348D01*
X10983326Y7446674D02*
X10936674D01*
%TF.MD5,02bd1437f974f2934cc19f52e4a9b81e*%
M02*
