%TF.GenerationSoftware,Altium Limited,Altium Designer,25.4.2 (15)*%
G04 Layer_Color=0*
%FSLAX45Y45*%
%MOMM*%
%TF.SameCoordinates,ED5EE25F-CAAF-45C9-90DD-3E8EB6C1BE4C*%
%TF.FilePolarity,Positive*%
%TF.FileFunction,Other,Top_Component_Center*%
%TF.Part,Single*%
G01*
G75*
%TA.AperFunction,NonConductor*%
%ADD63C,0.10000*%
D63*
X8510541Y8642976D02*
Y8742976D01*
X8460541Y8692976D02*
X8560541D01*
X8315851Y8078426D02*
X8415851D01*
X8365851Y8028426D02*
Y8128425D01*
X10971919Y8583027D02*
X11071918D01*
X11021919Y8533027D02*
Y8633027D01*
X10204212Y9858500D02*
Y9958500D01*
X10154212Y9908500D02*
X10254212D01*
X10100000Y9305560D02*
Y9494440D01*
X10005560Y9400000D02*
X10194440D01*
X10075000Y7250780D02*
X10175000D01*
X10125000Y7200780D02*
Y7300779D01*
X9220850Y9305151D02*
Y9405151D01*
X9170850Y9355151D02*
X9270850D01*
X9403097Y9303955D02*
Y9403955D01*
X9353097Y9353955D02*
X9453097D01*
X9100000Y9175000D02*
X9200000D01*
X9150000Y9125000D02*
Y9225000D01*
X9349052Y7724690D02*
Y7824690D01*
X9299052Y7774690D02*
X9399052D01*
X10384114Y8346341D02*
Y8446341D01*
X10334114Y8396341D02*
X10434114D01*
X10587810Y7222944D02*
X10687810D01*
X10637810Y7172944D02*
Y7272944D01*
X10125000Y7750000D02*
Y7850000D01*
X10075000Y7800000D02*
X10175000D01*
X10223607Y8123120D02*
X10323607D01*
X10273607Y8073120D02*
Y8173120D01*
X10439227Y8123120D02*
X10539227D01*
X10489227Y8073120D02*
Y8173120D01*
X10825000Y7750000D02*
X10925000D01*
X10875000Y7700000D02*
Y7800000D01*
X9775000Y8026377D02*
Y8126376D01*
X9725000Y8076377D02*
X9825000D01*
X8902500Y6742500D02*
Y6842500D01*
X8852500Y6792500D02*
X8952500D01*
%TF.MD5,4d0dedfaf19fdc63416dff0e20c4a1eb*%
M02*
