%TF.GenerationSoftware,Altium Limited,Altium Designer,25.4.2 (15)*%
G04 Layer_Color=8421504*
%FSLAX45Y45*%
%MOMM*%
%TF.SameCoordinates,ED5EE25F-CAAF-45C9-90DD-3E8EB6C1BE4C*%
%TF.FilePolarity,Positive*%
%TF.FileFunction,Paste,Top*%
%TF.Part,Single*%
G01*
G75*
%TA.AperFunction,SMDPad,CuDef*%
%ADD10R,1.00620X1.10506*%
%ADD11R,0.72000X0.76000*%
%ADD12R,0.60000X0.60000*%
%ADD13R,0.75000X0.70000*%
%TA.AperFunction,ConnectorPad*%
%ADD14R,1.38000X0.45000*%
%ADD15R,1.55000X1.42500*%
%ADD16R,1.90000X1.00000*%
%ADD17R,1.90000X1.80000*%
%ADD18R,1.30000X1.65000*%
%TA.AperFunction,SMDPad,CuDef*%
%ADD19R,0.55964X0.47247*%
%ADD20R,0.76000X0.72000*%
%ADD22R,3.18213X1.00429*%
%ADD23R,1.25000X1.25000*%
%ADD24R,2.60000X2.70000*%
%ADD25R,0.35000X0.80000*%
%ADD26R,0.85000X0.35000*%
%ADD27R,0.52000X0.56000*%
%ADD28R,0.51535X0.47247*%
%ADD29R,0.47247X0.55964*%
%ADD30R,0.62000X0.62000*%
%ADD31R,0.50000X0.45000*%
%ADD32R,5.60000X5.60000*%
%ADD33O,0.25000X0.80000*%
%ADD34O,0.80000X0.25000*%
%ADD35R,1.10506X1.00620*%
%ADD36R,0.60000X0.60000*%
%ADD37R,1.10606X0.95822*%
%ADD38R,1.45620X1.25464*%
%ADD39R,1.25464X1.45620*%
%ADD40R,0.67248X0.71535*%
%ADD41R,0.71535X0.67248*%
%ADD42R,0.60000X1.70000*%
%ADD43R,1.00000X2.70000*%
D10*
X8510541Y8622919D02*
D03*
Y8763033D02*
D03*
X10273607Y8193177D02*
D03*
Y8053063D02*
D03*
X10489227Y8193177D02*
D03*
Y8053063D02*
D03*
D11*
X8685851Y8168723D02*
D03*
Y8266723D02*
D03*
X8225000Y9374000D02*
D03*
Y9276000D02*
D03*
X8685851Y8610257D02*
D03*
Y8708257D02*
D03*
X9758967Y8719028D02*
D03*
Y8817028D02*
D03*
D12*
X9830000Y8225000D02*
D03*
X9720000D02*
D03*
D13*
X8298351Y8028426D02*
D03*
X8433351D02*
D03*
Y8128425D02*
D03*
X8298351D02*
D03*
D14*
X10790918Y8713027D02*
D03*
Y8648027D02*
D03*
Y8583027D02*
D03*
Y8518027D02*
D03*
Y8453027D02*
D03*
D15*
X10799419Y8831777D02*
D03*
Y8334277D02*
D03*
D16*
X11056918Y8738027D02*
D03*
D17*
Y8468027D02*
D03*
D18*
Y8920527D02*
D03*
Y8245527D02*
D03*
D19*
X10241837Y9908500D02*
D03*
X10166587D02*
D03*
D20*
X9942503Y9921705D02*
D03*
X10040503D02*
D03*
X9008921Y8946438D02*
D03*
X8910921D02*
D03*
X9476000Y7950000D02*
D03*
X9574000D02*
D03*
X8548473Y9097500D02*
D03*
X8450473D02*
D03*
D22*
X10125000Y6921280D02*
D03*
D23*
X9896000Y7580279D02*
D03*
X10125000D02*
D03*
X10354000D02*
D03*
D24*
X8575000Y9425000D02*
D03*
D25*
X8450000Y9225000D02*
D03*
X8500000D02*
D03*
X8550000D02*
D03*
X8600000D02*
D03*
X8650000D02*
D03*
X8700000D02*
D03*
X8450000Y9625000D02*
D03*
X8500000D02*
D03*
X8550000D02*
D03*
X8600000D02*
D03*
X8650000D02*
D03*
X8700000D02*
D03*
D26*
X8772500Y9300000D02*
D03*
Y9350000D02*
D03*
Y9400000D02*
D03*
Y9450000D02*
D03*
Y9500000D02*
D03*
Y9550000D02*
D03*
X8377500Y9300000D02*
D03*
Y9350000D02*
D03*
Y9400000D02*
D03*
Y9450000D02*
D03*
Y9500000D02*
D03*
Y9550000D02*
D03*
D27*
X8225000Y9491000D02*
D03*
Y9569000D02*
D03*
X8888327Y9270437D02*
D03*
Y9348437D02*
D03*
D28*
X9182994Y9355151D02*
D03*
X9258706D02*
D03*
X9440954Y9353955D02*
D03*
X9365241D02*
D03*
D29*
X9150000Y9137375D02*
D03*
Y9212625D02*
D03*
D30*
X8444851Y8280976D02*
D03*
X8536851D02*
D03*
X8331851Y8280976D02*
D03*
X8239851D02*
D03*
D31*
X8528351Y8385976D02*
D03*
X8453351D02*
D03*
D32*
X9220851Y8447075D02*
D03*
D33*
X8945851Y8787075D02*
D03*
X8995851D02*
D03*
X9045851D02*
D03*
X9095851D02*
D03*
X9145851D02*
D03*
X9195851D02*
D03*
X9245851D02*
D03*
X9295851D02*
D03*
X9345851D02*
D03*
X9395851D02*
D03*
X9445851D02*
D03*
X9495851D02*
D03*
Y8107075D02*
D03*
X9445851D02*
D03*
X9395851D02*
D03*
X9345851D02*
D03*
X9295851D02*
D03*
X9245851D02*
D03*
X9195851D02*
D03*
X9145851D02*
D03*
X9095851D02*
D03*
X9045851D02*
D03*
X8995851D02*
D03*
X8945851D02*
D03*
D34*
X9560851Y8722075D02*
D03*
Y8672075D02*
D03*
Y8622075D02*
D03*
Y8572075D02*
D03*
Y8522075D02*
D03*
Y8472075D02*
D03*
Y8422075D02*
D03*
Y8372075D02*
D03*
Y8322075D02*
D03*
Y8272075D02*
D03*
Y8222075D02*
D03*
Y8172075D02*
D03*
X8880851D02*
D03*
Y8222075D02*
D03*
Y8272075D02*
D03*
Y8322075D02*
D03*
Y8372075D02*
D03*
Y8422075D02*
D03*
Y8472075D02*
D03*
Y8522075D02*
D03*
Y8572075D02*
D03*
Y8622075D02*
D03*
Y8672075D02*
D03*
Y8722075D02*
D03*
D35*
X9419109Y7774690D02*
D03*
X9278995D02*
D03*
D36*
X10875000Y7445000D02*
D03*
Y7555000D02*
D03*
D37*
X10316506Y8396341D02*
D03*
X10451722D02*
D03*
D38*
X10637810Y7305522D02*
D03*
Y7140366D02*
D03*
D39*
X10207578Y7800000D02*
D03*
X10042422D02*
D03*
D40*
X10875000Y7702144D02*
D03*
Y7797856D02*
D03*
D41*
X9822856Y8076377D02*
D03*
X9727144D02*
D03*
D42*
X9215000Y7020000D02*
D03*
X9090000D02*
D03*
X8965000D02*
D03*
X8840000D02*
D03*
X8715000D02*
D03*
X8590000D02*
D03*
D43*
X9400000Y6700000D02*
D03*
X8405000D02*
D03*
%TF.MD5,7d52e526036eef0933368f4a3098acb5*%
M02*
