M48
;Layer_Color=9474304
;FILE_FORMAT=4:2
METRIC
;TYPE=PLATED
T01F00S00C0.20
T02F00S00C0.25
T03F00S00C0.30
T04F00S00C1.15
T05F00S00C3.20
%
T01
X009001Y008227
Y008337
X009111
Y008227
X009221
Y008337
X009331
Y008227
X009441
Y008337
Y008447
X009331
X009221
X009111
X009001
Y008557
X009111
X009221
X009331
X009441
Y008667
X009331
X009221
X009111
X009001
X008630Y009370
Y009480
X008520
Y009370
T02
X010574Y007486
X010697Y007488
X009600Y009050
X009415Y009003
X009325Y009475
X009100
X008574Y009434
X008440Y009010
X008160Y008770
X008625Y008375
X009441Y009729
T03
X009274Y006726
X009620Y006730
X009216Y007208
X009279Y007626
X009590Y007840
X009776Y007929
X010369Y007886
X010505Y007892
X010700Y007800
X010367Y007712
X008436Y007891
X008572Y008173
X008161Y008128
X008100Y008300
X008300Y008600
X008650Y009100
X008997Y009032
X009012Y009171
X008983Y009385
X008703Y009795
X008110Y009440
X008120Y009280
X010230Y009240
X009950Y008920
X010600Y008800
X010000Y009745
X009832Y009739
X009760Y009945
T04
X010980Y007090
X007870Y009540
T05
X008000Y006800
X010900
Y009800
X008000
M30
