%TF.GenerationSoftware,Altium Limited,Altium Designer,25.4.2 (15)*%
G04 Layer_Color=8388736*
%FSLAX45Y45*%
%MOMM*%
%TF.SameCoordinates,ED5EE25F-CAAF-45C9-90DD-3E8EB6C1BE4C*%
%TF.FilePolarity,Negative*%
%TF.FileFunction,Soldermask,Top*%
%TF.Part,Single*%
G01*
G75*
%TA.AperFunction,SMDPad,CuDef*%
%ADD10R,1.00620X1.10506*%
%ADD13R,0.75000X0.70000*%
%TA.AperFunction,ConnectorPad*%
%ADD14R,1.38000X0.45000*%
%ADD15R,1.55000X1.42500*%
%ADD16R,1.90000X1.00000*%
%ADD17R,1.90000X1.80000*%
%ADD18R,1.30000X1.65000*%
%TA.AperFunction,SMDPad,CuDef*%
%ADD19R,0.55964X0.47247*%
%TA.AperFunction,BGAPad,CuDef*%
%ADD21C,0.78700*%
%TA.AperFunction,SMDPad,CuDef*%
%ADD22R,3.18213X1.00429*%
%ADD23R,1.25000X1.25000*%
%ADD28R,0.51535X0.47247*%
%ADD29R,0.47247X0.55964*%
%ADD35R,1.10506X1.00620*%
%ADD37R,1.10606X0.95822*%
%ADD38R,1.45620X1.25464*%
%ADD39R,1.25464X1.45620*%
%ADD40R,0.67248X0.71535*%
%ADD41R,0.71535X0.67248*%
%ADD42R,0.60000X1.70000*%
%ADD43R,1.00000X2.70000*%
%TA.AperFunction,ComponentPad*%
%ADD54C,0.99100*%
%TA.AperFunction,SMDPad,CuDef*%
%ADD64R,0.92320X0.96320*%
%ADD65R,0.80320X0.80320*%
%ADD66R,0.96320X0.92320*%
%ADD67R,2.80320X2.90320*%
%ADD68R,0.55320X1.00320*%
%ADD69R,1.05320X0.55320*%
%ADD70R,0.72320X0.76320*%
%ADD71R,0.82320X0.82320*%
%ADD72R,0.70320X0.65320*%
%ADD73R,5.80320X5.80320*%
%ADD74O,0.45320X1.00320*%
%ADD75O,1.00320X0.45320*%
%ADD76R,0.80320X0.80320*%
%TA.AperFunction,ViaPad*%
%ADD77C,1.35520*%
%ADD78C,3.40320*%
%ADD79C,0.90320*%
%ADD80C,1.00320*%
%ADD81C,0.80320*%
%ADD82C,0.70320*%
D10*
X8510541Y8622919D02*
D03*
Y8763033D02*
D03*
X10273607Y8193177D02*
D03*
Y8053063D02*
D03*
X10489227Y8193177D02*
D03*
Y8053063D02*
D03*
D13*
X8298351Y8028426D02*
D03*
X8433351D02*
D03*
Y8128425D02*
D03*
X8298351D02*
D03*
D14*
X10790918Y8713027D02*
D03*
Y8648027D02*
D03*
Y8583027D02*
D03*
Y8518027D02*
D03*
Y8453027D02*
D03*
D15*
X10799419Y8831777D02*
D03*
Y8334277D02*
D03*
D16*
X11056918Y8738027D02*
D03*
D17*
Y8468027D02*
D03*
D18*
Y8920527D02*
D03*
Y8245527D02*
D03*
D19*
X10241837Y9908500D02*
D03*
X10166587D02*
D03*
D21*
X9973000Y9336500D02*
D03*
X10100000D02*
D03*
X10227000D02*
D03*
X9973000Y9463500D02*
D03*
X10100000D02*
D03*
X10227000D02*
D03*
D22*
X10125000Y6921280D02*
D03*
D23*
X9896000Y7580279D02*
D03*
X10125000D02*
D03*
X10354000D02*
D03*
D28*
X9182994Y9355151D02*
D03*
X9258706D02*
D03*
X9440954Y9353955D02*
D03*
X9365241D02*
D03*
D29*
X9150000Y9137375D02*
D03*
Y9212625D02*
D03*
D35*
X9419109Y7774690D02*
D03*
X9278995D02*
D03*
D37*
X10316506Y8396341D02*
D03*
X10451722D02*
D03*
D38*
X10637810Y7305522D02*
D03*
Y7140366D02*
D03*
D39*
X10207578Y7800000D02*
D03*
X10042422D02*
D03*
D40*
X10875000Y7702144D02*
D03*
Y7797856D02*
D03*
D41*
X9822856Y8076377D02*
D03*
X9727144D02*
D03*
D42*
X9215000Y7020000D02*
D03*
X9090000D02*
D03*
X8965000D02*
D03*
X8840000D02*
D03*
X8715000D02*
D03*
X8590000D02*
D03*
D43*
X9400000Y6700000D02*
D03*
X8405000D02*
D03*
D54*
X9846000Y9501600D02*
D03*
Y9298400D02*
D03*
X10354000Y9400000D02*
D03*
D64*
X8685851Y8168723D02*
D03*
Y8266723D02*
D03*
X8225000Y9374000D02*
D03*
Y9276000D02*
D03*
X8685851Y8610257D02*
D03*
Y8708257D02*
D03*
X9758967Y8719028D02*
D03*
Y8817028D02*
D03*
D65*
X9830000Y8225000D02*
D03*
X9720000D02*
D03*
D66*
X9942503Y9921705D02*
D03*
X10040503D02*
D03*
X9008921Y8946438D02*
D03*
X8910921D02*
D03*
X9476000Y7950000D02*
D03*
X9574000D02*
D03*
X8548473Y9097500D02*
D03*
X8450473D02*
D03*
D67*
X8575000Y9425000D02*
D03*
D68*
X8450000Y9225000D02*
D03*
X8500000D02*
D03*
X8550000D02*
D03*
X8600000D02*
D03*
X8650000D02*
D03*
X8700000D02*
D03*
X8450000Y9625000D02*
D03*
X8500000D02*
D03*
X8550000D02*
D03*
X8600000D02*
D03*
X8650000D02*
D03*
X8700000D02*
D03*
D69*
X8772500Y9300000D02*
D03*
Y9350000D02*
D03*
Y9400000D02*
D03*
Y9450000D02*
D03*
Y9500000D02*
D03*
Y9550000D02*
D03*
X8377500Y9300000D02*
D03*
Y9350000D02*
D03*
Y9400000D02*
D03*
Y9450000D02*
D03*
Y9500000D02*
D03*
Y9550000D02*
D03*
D70*
X8225000Y9491000D02*
D03*
Y9569000D02*
D03*
X8888327Y9270437D02*
D03*
Y9348437D02*
D03*
D71*
X8444851Y8280976D02*
D03*
X8536851D02*
D03*
X8331851Y8280976D02*
D03*
X8239851D02*
D03*
D72*
X8528351Y8385976D02*
D03*
X8453351D02*
D03*
D73*
X9220851Y8447075D02*
D03*
D74*
X8945851Y8787075D02*
D03*
X8995851D02*
D03*
X9045851D02*
D03*
X9095851D02*
D03*
X9145851D02*
D03*
X9195851D02*
D03*
X9245851D02*
D03*
X9295851D02*
D03*
X9345851D02*
D03*
X9395851D02*
D03*
X9445851D02*
D03*
X9495851D02*
D03*
Y8107075D02*
D03*
X9445851D02*
D03*
X9395851D02*
D03*
X9345851D02*
D03*
X9295851D02*
D03*
X9245851D02*
D03*
X9195851D02*
D03*
X9145851D02*
D03*
X9095851D02*
D03*
X9045851D02*
D03*
X8995851D02*
D03*
X8945851D02*
D03*
D75*
X9560851Y8722075D02*
D03*
Y8672075D02*
D03*
Y8622075D02*
D03*
Y8572075D02*
D03*
Y8522075D02*
D03*
Y8472075D02*
D03*
Y8422075D02*
D03*
Y8372075D02*
D03*
Y8322075D02*
D03*
Y8272075D02*
D03*
Y8222075D02*
D03*
Y8172075D02*
D03*
X8880851D02*
D03*
Y8222075D02*
D03*
Y8272075D02*
D03*
Y8322075D02*
D03*
Y8372075D02*
D03*
Y8422075D02*
D03*
Y8472075D02*
D03*
Y8522075D02*
D03*
Y8572075D02*
D03*
Y8622075D02*
D03*
Y8672075D02*
D03*
Y8722075D02*
D03*
D76*
X10875000Y7445000D02*
D03*
Y7555000D02*
D03*
D77*
X7870000Y9540000D02*
D03*
X10980000Y7090000D02*
D03*
D78*
X10900000Y9800000D02*
D03*
Y6800000D02*
D03*
X8000000D02*
D03*
Y9800000D02*
D03*
D79*
X10660000Y7790000D02*
D03*
X9589875Y7840042D02*
D03*
X8110000Y9440000D02*
D03*
X8120000Y9280000D02*
D03*
X9760000Y9945000D02*
D03*
X9831715Y9738792D02*
D03*
X10000000Y9745000D02*
D03*
X9440954Y9729046D02*
D03*
X10230000Y9240000D02*
D03*
X9950000Y8920000D02*
D03*
X8996842Y9032500D02*
D03*
X9011883Y9170507D02*
D03*
X8650000Y9100000D02*
D03*
X8983095Y9385004D02*
D03*
X8300000Y8600000D02*
D03*
X8703488Y9794767D02*
D03*
X8436150Y7890959D02*
D03*
X9620000Y6730000D02*
D03*
X9273948Y6725648D02*
D03*
X9279070Y7626477D02*
D03*
X9776473Y7928570D02*
D03*
X10504703Y7892099D02*
D03*
X10367118Y7712179D02*
D03*
X10369234Y7885749D02*
D03*
X9216025Y7207997D02*
D03*
X10600000Y8800000D02*
D03*
X8572500Y8173482D02*
D03*
X8160854Y8128079D02*
D03*
X8100000Y8300000D02*
D03*
D80*
X10650000Y7910000D02*
D03*
X10660000Y7660000D02*
D03*
X8140000Y7910000D02*
D03*
X8390000Y7140000D02*
D03*
X9420000Y7210000D02*
D03*
X10420000Y8840000D02*
D03*
X10280000D02*
D03*
X8150000Y9100000D02*
D03*
X8250000Y8470000D02*
D03*
X8110000D02*
D03*
X8240000Y7140000D02*
D03*
X8100000D02*
D03*
X9950000Y8410000D02*
D03*
X9810000D02*
D03*
X10730000Y9540000D02*
D03*
X10870000D02*
D03*
Y9390000D02*
D03*
X10730000D02*
D03*
X10740000Y9260000D02*
D03*
X10880000D02*
D03*
Y9110000D02*
D03*
X10740000D02*
D03*
X9280000Y7500000D02*
D03*
X9420000D02*
D03*
Y7350000D02*
D03*
X9280000D02*
D03*
X8100000Y7300000D02*
D03*
X8250000D02*
D03*
X8390000D02*
D03*
X8100000Y7460000D02*
D03*
X8250000D02*
D03*
X8390000D02*
D03*
Y7610000D02*
D03*
X8250000D02*
D03*
X8100000D02*
D03*
X9200000Y9650000D02*
D03*
X9000000D02*
D03*
X8530000Y9770000D02*
D03*
X8360000D02*
D03*
X9200000D02*
D03*
X9000000D02*
D03*
D81*
X8440000Y9010000D02*
D03*
X8160000Y8770000D02*
D03*
X8573963Y9433571D02*
D03*
X9100000Y9475000D02*
D03*
X10696758Y7487537D02*
D03*
X10573515Y7485964D02*
D03*
X9325000Y9475000D02*
D03*
X9415498Y9003019D02*
D03*
X9600000Y9050000D02*
D03*
X8625000Y8375000D02*
D03*
D82*
X8630000Y9480000D02*
D03*
Y9370000D02*
D03*
X8520000D02*
D03*
Y9480000D02*
D03*
X9440851Y8227075D02*
D03*
X9330851D02*
D03*
X9220851D02*
D03*
X9110851D02*
D03*
X9000851D02*
D03*
X9440851Y8337075D02*
D03*
X9330851D02*
D03*
X9220851D02*
D03*
X9110851D02*
D03*
X9000851D02*
D03*
X9440851Y8447075D02*
D03*
X9330851D02*
D03*
X9220851D02*
D03*
X9110851D02*
D03*
X9000851D02*
D03*
X9440851Y8557075D02*
D03*
X9330851D02*
D03*
X9220851D02*
D03*
X9110851D02*
D03*
X9000851D02*
D03*
X9440851Y8667075D02*
D03*
X9330851D02*
D03*
X9220851D02*
D03*
X9110851D02*
D03*
X9000851D02*
D03*
%TF.MD5,af8654c2bf8769727e9c79a31287a599*%
M02*
